<?xml version="1.0" encoding="utf-8"?>
<!-- Generator: Adobe Illustrator 17.1.0, SVG Export Plug-In . SVG Version: 6.00 Build 0)  -->
<!DOCTYPE svg PUBLIC "-//W3C//DTD SVG 1.1//EN" "http://www.w3.org/Graphics/SVG/1.1/DTD/svg11.dtd">
<svg version="1.1" id="Layer_1" xmlns="http://www.w3.org/2000/svg" xmlns:xlink="http://www.w3.org/1999/xlink" x="0px" y="0px"
	 viewBox="0 0 300 125" style="enable-background:new 0 0 300 125;" xml:space="preserve">
<style type="text/css">
	.st0{fill:#369699;}
	.st1{fill:#FFFFFF;}
	.st2{fill:none;}
</style>
<path class="st0" d="M295,125H5c-2.8,0-5-2.2-5-5V5c0-2.8,2.2-5,5-5h290c2.8,0,5,2.2,5,5v115C300,122.8,297.8,125,295,125z"/>
<g>
	<path class="st1" d="M40,67.5c0-7.4,4.3-12.1,10.8-12.1c2.5,0,4.5,0.7,6.1,1.8V46.2h-4.4v-4.7h10.4v32.9h3.5V79h-9v-2.5
		c-1.6,1.8-3.8,3.1-7.1,3.1C44.1,79.6,40,74.7,40,67.5z M56.8,73.1V61.5c-1.2-0.8-2.6-1.4-4.5-1.4c-4.2,0-6.2,2.9-6.2,7.4
		c0,4,1.6,7.6,5.8,7.6C54,75,55.6,74.1,56.8,73.1z"/>
	<path class="st1" d="M67.7,67.5c0-7.1,4.4-12.1,12.1-12.1c7.8,0,12.1,4.9,12.1,12.1s-4.4,12.1-12.1,12.1
		C72.1,79.6,67.7,74.6,67.7,67.5z M85.7,67.5c0-4.2-1.8-7.5-5.9-7.5s-5.9,3.3-5.9,7.5s1.8,7.5,5.9,7.5S85.7,71.7,85.7,67.5z"/>
	<path class="st1" d="M96.2,60.6h-2.8V56h11.7v4.5h-3.5l3.4,11.4l5-15.9h5.2l5.1,16l3.3-11.5h-3.5V56h11.4v4.5h-3L123,79h-5.2
		l-5.3-14.9L107.7,79h-5.3L96.2,60.6z"/>
	<path class="st1" d="M133.9,74.3h3.5V60.7h-3.5V56h9.3v2.9c2.2-1.8,5-3.5,8.5-3.5c4.2,0,6.9,2.4,6.9,7.1v11.7h3.5V79h-13v-4.7h3.5
		V63.2c0-1.9-0.7-3-2.8-3c-2.3,0-4.6,1.3-6.4,2.7v11.5h3.5V79h-13V74.3z"/>
	<path class="st1" d="M164.1,74.3h3.5V46.2h-3.5v-4.7h9.5v32.9h3.5V79h-13V74.3z"/>
	<path class="st1" d="M178.7,67.5c0-7.1,4.4-12.1,12.1-12.1c7.8,0,12.1,4.9,12.1,12.1s-4.4,12.1-12.1,12.1
		C183.1,79.6,178.7,74.6,178.7,67.5z M196.7,67.5c0-4.2-1.8-7.5-5.9-7.5c-4.1,0-5.9,3.3-5.9,7.5s1.8,7.5,5.9,7.5
		C194.9,75.1,196.7,71.7,196.7,67.5z"/>
	<path class="st1" d="M206,67.6c0-7.5,4.5-12.1,10.7-12.1c3.4,0,5.3,1.4,6.5,2.5V56h5.7v18.3h3.3V79h-8.8v-2.5
		c-1.6,1.8-3.8,3.1-7.1,3.1C210.1,79.6,206,74.7,206,67.6z M222.8,73.1V62c-1.2-1-2.7-2-4.8-2c-3.2,0-5.9,2.2-5.9,7.4
		c0,4.1,1.6,7.5,5.8,7.5C220,75,221.6,74.1,222.8,73.1z"/>
	<path class="st1" d="M233.7,67.5c0-7.4,4.3-12.1,10.8-12.1c2.5,0,4.5,0.7,6.1,1.8V46.2h-4.4v-4.7h10.4v32.9h3.5V79h-9v-2.5
		c-1.6,1.8-3.8,3.1-7.1,3.1C237.7,79.6,233.7,74.7,233.7,67.5z M250.5,73.1V61.5c-1.2-0.8-2.6-1.4-4.5-1.4c-4.2,0-6.2,2.9-6.2,7.4
		c0,4,1.6,7.6,5.8,7.6C247.6,75,249.3,74.1,250.5,73.1z"/>
</g>
<g>
	<rect x="40" y="285.7" class="st2" width="235" height="77.7"/>
	<path class="st1" d="M41.2,292h1l0.8-4.7h-1.5l-0.2,1h-0.8l0.3-1.7h5.8l0.3-1h0.7l-0.6,3.4c0.4-0.4,1-0.7,1.7-0.7
		c0.8,0,1.2,0.5,1.1,1.4l-0.3,1.9c-0.1,0.3,0,0.5,0.3,0.5c0.2,0,0.4-0.1,0.5-0.1l-0.1,0.7c-0.2,0.1-0.4,0.1-0.7,0.1
		c-0.8,0-1-0.5-0.9-1.2l0.3-1.8c0.1-0.5,0-0.8-0.5-0.8c-0.5,0-1.1,0.4-1.5,0.8l-0.5,2.9h-0.9l0.9-5.4h-2.6L43,292h1l-0.1,0.7H41
		L41.2,292z"/>
	<path class="st1" d="M50.8,290.9c0-1.5,1.1-2.6,2.4-2.6c0.9,0,1.3,0.5,1.3,1.1c0,1.2-1.5,1.5-2.9,1.6c0,0.8,0.5,1.1,1.2,1.1
		c0.5,0,1-0.2,1.4-0.4l-0.1,0.7c-0.3,0.2-0.8,0.3-1.3,0.3C51.6,292.8,50.8,292.2,50.8,290.9z M53.7,289.5c0-0.2-0.1-0.5-0.6-0.5
		c-0.7,0-1.3,0.6-1.5,1.4C52.7,290.4,53.7,290.1,53.7,289.5z"/>
	<path class="st1" d="M57.4,291.7l0.9-5.3h-0.8l0.1-0.7h1.6l-1.1,6c-0.1,0.3,0,0.5,0.3,0.5c0.2,0,0.4-0.1,0.5-0.1l-0.1,0.7
		c-0.2,0.1-0.4,0.1-0.7,0.1C57.4,292.8,57.3,292.3,57.4,291.7z"/>
	<path class="st1" d="M59.6,291.7c0-1.1,1-1.4,2.1-1.4h0.9l0.1-0.3c0.1-0.6-0.1-0.9-0.8-0.9c-0.5,0-1.1,0.1-1.5,0.3l0.1-0.7
		c0.4-0.1,1-0.3,1.5-0.3c1.1,0,1.7,0.5,1.5,1.5l-0.3,1.8c-0.1,0.3,0,0.5,0.3,0.5c0.2,0,0.4-0.1,0.5-0.1l-0.1,0.7
		c-0.2,0.1-0.4,0.1-0.7,0.1c-0.5,0-0.8-0.2-0.9-0.6c-0.4,0.3-0.9,0.6-1.5,0.6C60.2,292.8,59.6,292.5,59.6,291.7z M62.4,291.6
		l0.1-0.8h-0.8c-0.7,0-1.3,0.2-1.3,0.8c0,0.4,0.2,0.6,0.6,0.6C61.6,292.2,62.1,291.9,62.4,291.6z"/>
	<path class="st1" d="M65,291.5l0.4-2.4h-0.7l0.1-0.7h0.7l0.2-1.1h0.9l-0.2,1.1h1.2l-0.1,0.7h-1.2l-0.4,2.5
		c-0.1,0.4,0.1,0.6,0.5,0.6c0.4,0,0.7-0.1,0.9-0.2l-0.1,0.6c-0.2,0.1-0.6,0.2-1,0.2C65.3,292.8,64.8,292.4,65,291.5z"/>
	<path class="st1" d="M67.9,290.9c0-1.5,1.1-2.6,2.4-2.6c0.9,0,1.3,0.5,1.3,1.1c0,1.2-1.5,1.5-2.9,1.6c0,0.8,0.5,1.1,1.2,1.1
		c0.5,0,1-0.2,1.4-0.4l-0.1,0.7c-0.3,0.2-0.8,0.3-1.3,0.3C68.7,292.8,67.9,292.2,67.9,290.9z M70.8,289.5c0-0.2-0.1-0.5-0.6-0.5
		c-0.7,0-1.3,0.6-1.5,1.4C69.8,290.4,70.8,290.1,70.8,289.5z"/>
	<path class="st1" d="M71.9,292.6l0.1-0.6c0.4,0.2,0.9,0.3,1.3,0.3c0.6,0,0.9-0.3,0.9-0.6c0-0.8-1.9-0.6-1.9-2
		c0-0.8,0.6-1.3,1.7-1.3c0.1-1.2,1-1.6,1.9-1.6h2.1l-0.3,1.7h1.2l-0.1,0.7h-1.2l-0.4,2.5c-0.1,0.4,0.1,0.6,0.5,0.6
		c0.4,0,0.7-0.1,0.9-0.2l-0.1,0.6c-0.2,0.1-0.6,0.2-1,0.2c-0.7,0-1.2-0.4-1.1-1.3l0.4-2.4h-0.7l0.1-0.7H77l0.2-1.1h-1.2
		c-0.6,0-1.2,0.1-1.2,1c0.2,0,0.4,0.1,0.6,0.2l-0.1,0.6c-0.3-0.1-0.7-0.2-1.1-0.2c-0.7,0-0.8,0.3-0.8,0.5c0,0.8,1.9,0.6,1.9,2
		c0,0.6-0.4,1.3-1.8,1.3C72.8,292.8,72.3,292.7,71.9,292.6z"/>
	<path class="st1" d="M81.9,289.1h-0.7l0.1-0.7h1.3l0.6,3.4c0.8-0.9,1.6-2,1.6-2.6c0-0.1,0-0.2-0.2-0.2c-0.2,0-0.4,0.1-0.6,0.2
		l-0.3-0.5c0.3-0.2,0.7-0.4,1.1-0.4c0.6,0,0.8,0.4,0.8,0.8c0,0.9-1,2.3-2.3,3.6h-0.7L81.9,289.1z"/>
	<path class="st1" d="M86,290.9c0-1.5,1.1-2.6,2.4-2.6c0.9,0,1.3,0.5,1.3,1.1c0,1.2-1.5,1.5-2.9,1.6c0,0.8,0.5,1.1,1.2,1.1
		c0.5,0,1-0.2,1.4-0.4l-0.1,0.7c-0.3,0.2-0.8,0.3-1.3,0.3C86.8,292.8,86,292.2,86,290.9z M88.9,289.5c0-0.2-0.1-0.5-0.6-0.5
		c-0.7,0-1.3,0.6-1.5,1.4C87.9,290.4,88.9,290.1,88.9,289.5z"/>
	<path class="st1" d="M91.1,289.1h-0.7l0.1-0.7H92l-0.1,0.8c0.4-0.4,0.9-0.9,1.5-0.9c0.4,0,0.7,0.2,0.7,0.7c0,0.2-0.1,0.5-0.1,0.7
		l-0.8-0.1c0-0.1,0.1-0.3,0.1-0.4c0-0.2-0.1-0.3-0.3-0.3c-0.5,0-1,0.6-1.3,0.9l-0.5,2.8h-0.9L91.1,289.1z"/>
	<path class="st1" d="M94.3,292.6l0.1-0.6c0.4,0.2,0.9,0.3,1.3,0.3c0.6,0,0.9-0.3,0.9-0.6c0-0.8-1.9-0.6-1.9-2
		c0-0.7,0.5-1.3,1.6-1.3c0.5,0,1,0.1,1.3,0.2l-0.1,0.6c-0.3-0.1-0.7-0.2-1.1-0.2c-0.7,0-0.8,0.3-0.8,0.5c0,0.8,1.9,0.6,1.9,2
		c0,0.6-0.4,1.3-1.8,1.3C95.3,292.8,94.7,292.7,94.3,292.6z"/>
	<path class="st1" d="M98.6,291.7l0.4-2.5h-0.7l0.1-0.7h1.6l-0.6,3.3c-0.1,0.3,0.1,0.5,0.3,0.5c0.2,0,0.4-0.1,0.5-0.1l-0.1,0.7
		c-0.2,0.1-0.4,0.1-0.7,0.1C98.7,292.8,98.5,292.3,98.6,291.7z M99.2,287c0-0.3,0.3-0.6,0.6-0.6c0.3,0,0.6,0.3,0.6,0.6
		s-0.3,0.6-0.6,0.6C99.5,287.6,99.2,287.3,99.2,287z"/>
	<path class="st1" d="M100.7,290.9c0-1.4,0.9-2.6,2.4-2.6c1.1,0,1.9,0.7,1.9,1.9c0,1.4-0.9,2.6-2.4,2.6
		C101.5,292.8,100.7,292.2,100.7,290.9z M104.2,290.3c0-0.7-0.3-1.3-1-1.3c-0.9,0-1.5,0.9-1.5,1.9c0,0.8,0.3,1.3,1,1.3
		C103.6,292.2,104.2,291.3,104.2,290.3z"/>
	<path class="st1" d="M106.3,289.1h-0.7l0.1-0.7h1.6l-0.1,0.7c0.4-0.4,1-0.8,1.7-0.8c0.7,0,1.2,0.5,1.1,1.4l-0.3,1.9
		c-0.1,0.3,0.1,0.5,0.3,0.5c0.2,0,0.4-0.1,0.5-0.1l-0.1,0.7c-0.2,0.1-0.4,0.1-0.7,0.1c-0.8,0-1-0.5-0.9-1.2l0.3-1.8
		c0.1-0.5,0-0.8-0.5-0.8c-0.5,0-1.1,0.4-1.5,0.8l-0.5,2.9h-0.9L106.3,289.1z"/>
	<path class="st1" d="M113,290.9c0-1.4,0.9-2.6,2.4-2.6c1.1,0,1.9,0.7,1.9,1.9c0,1.4-0.9,2.6-2.4,2.6
		C113.7,292.8,113,292.2,113,290.9z M116.5,290.3c0-0.7-0.3-1.3-1-1.3c-0.9,0-1.5,0.9-1.5,1.9c0,0.8,0.3,1.3,1,1.3
		C115.8,292.2,116.5,291.3,116.5,290.3z"/>
	<path class="st1" d="M116.5,294.8l0.1-0.7c0.1,0,0.3,0.1,0.5,0.1c0.3,0,0.7-0.1,0.8-0.7l0.8-4.3h-0.8l0.1-0.7h0.8l0.2-1.4
		c0.2-1.1,0.8-1.5,1.7-1.5c0.3,0,0.5,0,0.8,0.1l-0.1,0.6c-0.1,0-0.3,0-0.5,0c-0.6,0-0.9,0.2-1,0.8l-0.2,1.4h1.2l-0.1,0.7h-1.2
		l-0.7,4.3c-0.2,1-0.8,1.4-1.6,1.4C116.9,294.8,116.7,294.8,116.5,294.8z"/>
	<path class="st1" d="M122.6,292h0.9l0.8-4.7h-0.9l0.1-0.7h1.7l2.5,4.7l0.7-4h-0.9l0.1-0.7h2.6l-0.1,0.7h-0.9l-0.9,5.4h-0.8
		l-2.5-4.8l-0.7,4.1h0.9l-0.1,0.7h-2.6L122.6,292z"/>
	<path class="st1" d="M129.8,290.9c0-1.4,0.9-2.6,2.4-2.6c1.1,0,1.9,0.7,1.9,1.9c0,1.4-0.9,2.6-2.4,2.6
		C130.5,292.8,129.8,292.2,129.8,290.9z M133.2,290.3c0-0.7-0.3-1.3-1-1.3c-0.9,0-1.5,0.9-1.5,1.9c0,0.8,0.3,1.3,1,1.3
		C132.6,292.2,133.2,291.3,133.2,290.3z"/>
	<path class="st1" d="M135.6,289.1h-0.7l0.1-0.7h1.6l-0.1,0.8c0.4-0.4,0.9-0.9,1.5-0.9c0.4,0,0.7,0.2,0.7,0.7c0,0.2-0.1,0.5-0.1,0.7
		l-0.8-0.1c0-0.1,0.1-0.3,0.1-0.4c0-0.2-0.1-0.3-0.3-0.3c-0.5,0-1,0.6-1.3,0.9l-0.5,2.8h-0.9L135.6,289.1z"/>
	<path class="st1" d="M139.9,289.1h-0.7l0.1-0.7h1.5l-0.1,0.6c0.4-0.3,0.9-0.7,1.5-0.7c0.5,0,0.9,0.3,1,0.8c0.4-0.4,0.9-0.8,1.6-0.8
		c0.7,0,1.2,0.5,1,1.4l-0.4,2c0,0.3,0.1,0.5,0.3,0.5c0.2,0,0.4-0.1,0.5-0.1l-0.1,0.7c-0.2,0.1-0.4,0.1-0.7,0.1c-0.8,0-1-0.5-0.9-1.2
		l0.3-1.9c0.1-0.4-0.1-0.7-0.4-0.7c-0.4,0-0.9,0.3-1.3,0.7l-0.5,3h-0.8l0.5-3c0.1-0.4-0.1-0.7-0.4-0.7c-0.5,0-0.9,0.4-1.3,0.7
		l-0.5,3h-0.8L139.9,289.1z"/>
	<path class="st1" d="M146.7,291.7c0-1.1,1-1.4,2.1-1.4h0.9l0.1-0.3c0.1-0.6-0.1-0.9-0.8-0.9c-0.5,0-1.1,0.1-1.5,0.3l0.1-0.7
		c0.4-0.1,1-0.3,1.5-0.3c1.1,0,1.7,0.5,1.5,1.5l-0.3,1.8c-0.1,0.3,0,0.5,0.3,0.5c0.2,0,0.4-0.1,0.5-0.1l-0.1,0.7
		c-0.2,0.1-0.4,0.1-0.7,0.1c-0.5,0-0.8-0.2-0.9-0.6c-0.4,0.3-0.9,0.6-1.5,0.6C147.3,292.8,146.7,292.5,146.7,291.7z M149.5,291.6
		l0.1-0.8h-0.8c-0.7,0-1.3,0.2-1.3,0.8c0,0.4,0.2,0.6,0.6,0.6C148.6,292.2,149.1,291.9,149.5,291.6z"/>
	<path class="st1" d="M151.8,291.7l0.9-5.3H152l0.1-0.7h1.6l-1.1,6c-0.1,0.3,0,0.5,0.3,0.5c0.2,0,0.4-0.1,0.5-0.1l-0.1,0.7
		c-0.2,0.1-0.4,0.1-0.7,0.1C151.9,292.8,151.7,292.3,151.8,291.7z"/>
	<path class="st1" d="M154.2,291.7l0.4-2.5h-0.7l0.1-0.7h1.6l-0.6,3.3c-0.1,0.3,0.1,0.5,0.3,0.5c0.2,0,0.4-0.1,0.5-0.1l-0.1,0.7
		c-0.2,0.1-0.4,0.1-0.7,0.1C154.3,292.8,154.1,292.3,154.2,291.7z M154.8,287c0-0.3,0.3-0.6,0.6-0.6c0.3,0,0.6,0.3,0.6,0.6
		s-0.3,0.6-0.6,0.6C155.1,287.6,154.8,287.3,154.8,287z"/>
	<path class="st1" d="M156.4,292.4l2.9-3.3h-1.6l-0.1,0.8h-0.7l0.2-1.4h3.2l0.2,0.4l-2.9,3.2c0.4,0,0.9,0.1,1.2,0.1
		c0.6,0,0.7-0.4,0.9-0.8l0.6,0.2c-0.1,0.5-0.4,1.4-1.4,1.4c-0.5,0-1-0.2-1.6-0.2c-0.3,0-0.6,0.1-0.9,0.2L156.4,292.4z"/>
	<path class="st1" d="M160.9,290.9c0-1.5,1.1-2.6,2.4-2.6c0.9,0,1.3,0.5,1.3,1.1c0,1.2-1.5,1.5-2.9,1.6c0,0.8,0.5,1.1,1.2,1.1
		c0.5,0,1-0.2,1.4-0.4l-0.1,0.7c-0.3,0.2-0.8,0.3-1.3,0.3C161.7,292.8,160.9,292.2,160.9,290.9z M163.8,289.5c0-0.2-0.1-0.5-0.6-0.5
		c-0.7,0-1.3,0.6-1.5,1.4C162.8,290.4,163.8,290.1,163.8,289.5z"/>
	<path class="st1" d="M165.5,290h2.7l-0.1,0.7h-2.7L165.5,290z"/>
	<path class="st1" d="M169.3,290.1c0-1.9,1.4-3.6,3.5-3.6c1.7,0,2.8,1.1,2.8,2.7c0,1.9-1.4,3.6-3.6,3.6
		C170.3,292.9,169.3,291.8,169.3,290.1z M174.7,289.3c0-1.3-0.7-2-1.9-2c-1.5,0-2.6,1.2-2.6,2.8c0,1.3,0.7,2,1.9,2
		C173.5,292.1,174.7,290.9,174.7,289.3z"/>
	<path class="st1" d="M177.3,292l-0.5,2.7H176l1-5.6h-0.7l0.1-0.7h1.5l-0.1,0.6c0.4-0.4,0.9-0.7,1.5-0.7c0.9,0,1.6,0.7,1.6,1.9
		c0,1.5-1,2.5-2.2,2.5C178,292.8,177.5,292.5,177.3,292z M180,290.3c0-0.8-0.4-1.3-1-1.3c-0.9,0-1.5,0.9-1.5,1.9
		c0,0.8,0.4,1.3,1,1.3C179.4,292.2,180,291.4,180,290.3z"/>
	<path class="st1" d="M181.5,290.9c0-1.5,1.1-2.6,2.4-2.6c0.9,0,1.3,0.5,1.3,1.1c0,1.2-1.5,1.5-2.9,1.6c0,0.8,0.5,1.1,1.2,1.1
		c0.5,0,1-0.2,1.4-0.4l-0.1,0.7c-0.3,0.2-0.8,0.3-1.3,0.3C182.4,292.8,181.5,292.2,181.5,290.9z M184.5,289.5c0-0.2-0.1-0.5-0.6-0.5
		c-0.7,0-1.3,0.6-1.5,1.4C183.4,290.4,184.5,290.1,184.5,289.5z"/>
	<path class="st1" d="M186.6,289.1h-0.7l0.1-0.7h1.6l-0.1,0.7c0.4-0.4,1-0.8,1.7-0.8c0.7,0,1.2,0.5,1.1,1.4l-0.3,1.9
		c-0.1,0.3,0.1,0.5,0.3,0.5c0.2,0,0.4-0.1,0.5-0.1l-0.1,0.7c-0.2,0.1-0.4,0.1-0.7,0.1c-0.8,0-1-0.5-0.9-1.2l0.3-1.8
		c0.1-0.5,0-0.8-0.5-0.8c-0.5,0-1.1,0.4-1.5,0.8l-0.5,2.9H186L186.6,289.1z"/>
	<path class="st1" d="M191.5,292h1l0.8-4.7h-1.5l-0.2,1h-0.8l0.3-1.7h5.4l-0.3,1.7h-0.8l0.2-1h-1.4l-0.8,4.7h1l-0.1,0.7h-2.8
		L191.5,292z"/>
	<path class="st1" d="M197.1,289.1h-0.7l0.1-0.7h1.3l0.5,4.2c0.9-1.1,1.7-2.6,1.7-3.3c0-0.2-0.1-0.3-0.3-0.3c-0.2,0-0.4,0.1-0.6,0.2
		l-0.3-0.5c0.2-0.2,0.6-0.4,1.1-0.4c0.6,0,0.8,0.4,0.8,0.9c0,1.5-2.4,5.6-4.5,5.6c-0.5,0-0.9-0.2-1.2-0.5l0.4-0.5
		c0.2,0.1,0.5,0.3,0.8,0.3c0.6,0,1.4-0.6,2-1.4h-0.7L197.1,289.1z"/>
	<path class="st1" d="M202.5,292l-0.5,2.7h-0.9l1-5.6h-0.7l0.1-0.7h1.5l-0.1,0.6c0.4-0.4,0.9-0.7,1.5-0.7c0.9,0,1.6,0.7,1.6,1.9
		c0,1.5-1,2.5-2.2,2.5C203.2,292.8,202.7,292.5,202.5,292z M205.2,290.3c0-0.8-0.4-1.3-1-1.3c-0.9,0-1.5,0.9-1.5,1.9
		c0,0.8,0.4,1.3,1,1.3C204.6,292.2,205.2,291.4,205.2,290.3z"/>
	<path class="st1" d="M206.7,290.9c0-1.5,1.1-2.6,2.4-2.6c0.9,0,1.3,0.5,1.3,1.1c0,1.2-1.5,1.5-2.9,1.6c0,0.8,0.5,1.1,1.2,1.1
		c0.5,0,1-0.2,1.4-0.4l-0.1,0.7c-0.3,0.2-0.8,0.3-1.3,0.3C207.6,292.8,206.7,292.2,206.7,290.9z M209.7,289.5c0-0.2-0.1-0.5-0.6-0.5
		c-0.7,0-1.3,0.6-1.5,1.4C208.6,290.4,209.7,290.1,209.7,289.5z"/>
	<path class="st1" d="M211.1,292.3c0-0.3,0.2-0.6,0.6-0.6c0.3,0,0.6,0.3,0.6,0.6s-0.2,0.6-0.6,0.6
		C211.4,292.8,211.1,292.6,211.1,292.3z"/>
	<path class="st1" d="M213.3,290.9c0-1.3,0.8-2.6,2.5-2.6c0.5,0,1,0.1,1.3,0.2l-0.1,0.6c-0.3-0.1-0.7-0.2-1.1-0.2
		c-1.1,0-1.7,0.9-1.7,1.8c0,0.8,0.4,1.3,1.3,1.3c0.4,0,0.9-0.1,1.1-0.2l-0.1,0.7c-0.3,0.1-0.8,0.2-1.2,0.2
		C214,292.8,213.3,292.2,213.3,290.9z"/>
	<path class="st1" d="M217.1,292.6l0.1-0.6c0.4,0.2,0.9,0.3,1.3,0.3c0.6,0,0.9-0.3,0.9-0.6c0-0.8-1.9-0.6-1.9-2
		c0-0.7,0.5-1.3,1.6-1.3c0.5,0,1,0.1,1.3,0.2l-0.1,0.6c-0.3-0.1-0.7-0.2-1.1-0.2c-0.7,0-0.8,0.3-0.8,0.5c0,0.8,1.9,0.6,1.9,2
		c0,0.6-0.4,1.3-1.8,1.3C218,292.8,217.5,292.7,217.1,292.6z"/>
	<path class="st1" d="M220.8,292.6l0.1-0.6c0.4,0.2,0.9,0.3,1.3,0.3c0.6,0,0.9-0.3,0.9-0.6c0-0.8-1.9-0.6-1.9-2
		c0-0.7,0.5-1.3,1.6-1.3c0.5,0,1,0.1,1.3,0.2l-0.1,0.6c-0.3-0.1-0.7-0.2-1.1-0.2c-0.7,0-0.8,0.3-0.8,0.5c0,0.8,1.9,0.6,1.9,2
		c0,0.6-0.4,1.3-1.8,1.3C221.7,292.8,221.2,292.7,220.8,292.6z"/>
</g>
<g>
</g>
<g>
</g>
<g>
</g>
<g>
</g>
<g>
</g>
<g>
</g>
<g>
</g>
<g>
</g>
<g>
</g>
<g>
</g>
<g>
</g>
<g>
</g>
<g>
</g>
<g>
</g>
<g>
</g>
</svg>
