<?xml version="1.0" encoding="utf-8"?>
<!DOCTYPE svg PUBLIC "-//W3C//DTD SVG 1.1//EN" "http://www.w3.org/Graphics/SVG/1.1/DTD/svg11.dtd">
<!-- Normalize-OpenType.css wordmark | http://kennethormandy.com/journal/normalize-opentype-css/ -->
<svg version="1.1" id="Layer_1" xmlns="http://www.w3.org/2000/svg" xmlns:xlink="http://www.w3.org/1999/xlink" x="0px" y="0px"
	 viewBox="0 0 250 95" style="enable-background:new 0 0 250 95;" xml:space="preserve">
<path d="M6,35.2h4.5V11.6H6v-1.4h6.1l17.3,23.8V11.6h-4.5v-1.4h10.4v1.4h-4.5v24.9h-1.4l-17.4-24v22.7h4.5v1.4H6V35.2z"/>
<path d="M36.2,27.5c0-6.1,3.8-9.6,8.6-9.6c4.8,0,8.6,3.5,8.6,9.6c0,6.1-3.8,9.6-8.6,9.6C40.1,37,36.2,33.6,36.2,27.5z M52,27.5
	c0-5.1-2.9-8.2-7.1-8.2s-7.1,3.1-7.1,8.2c0,5.1,2.9,8.2,7.1,8.2S52,32.6,52,27.5z"/>
<path d="M56.6,35.3h3.7V19.7h-3.7v-1.3h5.1v4c1.6-2.2,4-4.5,7.4-4.5h0.4v1.5h-0.3c-3.2,0-5.6,2.2-7.4,4.2v11.7h4.1v1.3h-9.2V35.3z"
	/>
<path d="M72.2,35.3h3.7V19.7h-3.7v-1.3h5.1v2.8c1.8-1.7,4-3.3,6.9-3.3c2,0,4.1,0.8,4.8,3.5c1.8-1.8,4.1-3.5,7.1-3.5
	c2.5,0,5.1,1.2,5.1,5.7v11.7h3.7v1.3h-8.8v-1.3h3.7V23.9c0-3-1.1-4.6-3.8-4.6c-2.5,0-4.7,1.5-6.7,3.5c0,0.3,0,0.6,0,0.9v11.7H93v1.3
	h-8.8v-1.3h3.7V23.9c0-3-1.1-4.6-3.8-4.6c-2.5,0-4.7,1.5-6.7,3.4v12.6h3.7v1.3h-8.8V35.3z"/>
<path d="M105.6,27.5c0-5.1,2.8-9.6,8.1-9.6c2.9,0,5,1.3,6.4,2.8v-2.3h1.5v16.9h3.7v1.3h-5.1V34c-1.6,1.7-3.8,3-6.6,3
	C108.2,37,105.6,32.5,105.6,27.5z M120.2,32.5V22.2c-1.6-1.5-3.5-2.9-6.3-2.9c-4.5,0-6.7,3.7-6.7,8.2c0,4.3,2.1,8.2,6.6,8.2
	C116.6,35.7,118.6,34.1,120.2,32.5z"/>
<path d="M126.3,35.3h3.7v-28h-3.7V6h5.1v29.3h3.7v1.3h-8.8V35.3z"/>
<path d="M137.1,35.3h3.7V19.7h-3.7v-1.3h5.1v16.9h3.7v1.3h-8.8V35.3z M141.1,9.9c0.8,0,1.4,0.6,1.4,1.4c0,0.8-0.6,1.4-1.4,1.4
	c-0.8,0-1.4-0.6-1.4-1.4C139.7,10.6,140.3,9.9,141.1,9.9z"/>
<path d="M148.3,35.4l12.1-15.8h-10.6v3.7h-1.4v-4.9h13.8v1.1l-12.1,15.8h10.9v-3.9h1.4v5.2h-14.1V35.4z"/>
<path d="M166.1,27.6c0-5.8,3.3-9.6,8.2-9.6c5.6,0,7.6,5.1,7.6,8.9c0,0.2,0,0.6,0,0.8h-14.3c0,4.9,2.7,8,7.3,8c2.2,0,4.4-0.7,6.3-1.9
	v1.4c-1.7,1-3.7,1.8-6.3,1.8C169.3,37,166.1,33.3,166.1,27.6z M167.7,26.4h12.8c-0.2-3.5-1.9-7.2-6.2-7.2
	C170.5,19.2,168,22.1,167.7,26.4z"/>
<path d="M185.5,25.9h10.6v1.4h-10.6V25.9z"/>
<path d="M7.4,60.6c0-7.7,5-13.7,13.2-13.7c8.2,0,13.2,6,13.2,13.7s-5,13.7-13.2,13.7C12.4,74.3,7.4,68.3,7.4,60.6z M32.2,60.6
	c0-7.3-4.5-12.3-11.6-12.3c-7,0-11.6,5.1-11.6,12.3c0,7.3,4.5,12.3,11.6,12.3C27.6,72.9,32.2,67.8,32.2,60.6z"/>
<path d="M36.6,81.1h3.7V56.9h-3.7v-1.3h5.1v2.9c1.6-1.8,3.8-3.4,6.8-3.4c5.1,0,7.7,4.6,7.7,9.5c0,5.1-2.8,9.6-8.1,9.6
	c-2.9,0-4.9-1.3-6.4-2.9v9.7h4.2v1.3h-9.3V81.1z M41.7,60.1v9.8c1.4,1.6,3.5,3.1,6.4,3.1c4.5,0,6.7-3.7,6.7-8.3
	c0-4.2-1.9-8.1-6.4-8.1C45.3,56.5,43.3,58.3,41.7,60.1z"/>
<path d="M60,64.8c0-5.8,3.3-9.6,8.2-9.6c5.6,0,7.6,5.1,7.6,8.9c0,0.2,0,0.6,0,0.8H61.5c0,4.9,2.7,8,7.3,8c2.2,0,4.4-0.7,6.3-1.9v1.4
	c-1.7,1-3.7,1.8-6.3,1.8C63.2,74.3,60,70.5,60,64.8z M61.6,63.6h12.8c-0.2-3.5-1.9-7.2-6.2-7.2C64.4,56.5,61.9,59.4,61.6,63.6z"/>
<path d="M78.8,72.5h3.7V56.9h-3.7v-1.3h5.1v3c2.2-2.2,4.9-3.5,7.5-3.5c3.2,0,5.3,2,5.3,6v11.3h3.7v1.3h-8.8v-1.3h3.7V61.4
	c0-2.9-1-4.9-4-4.9c-2.9,0-5.4,1.9-7.3,3.7v12.3h3.7v1.3h-8.8V72.5z"/>
<path d="M106.2,72.4h4.7V48.9h-9.1v5.1h-1.5v-6.4H123v6.4h-1.5v-5.1h-9.1v23.6h4.7v1.4h-10.9V72.4z"/>
<path d="M122.2,81.7l0.5-1.2c0.9,0.6,1.8,1.1,3.2,1.1c2.1,0,3.4-1.3,4.2-3.2l1.8-4.6h-1.3l-5.9-16.9h-2.9v-1.3h8.4v1.3H126l5.8,16.8
	l6.5-16.8h-3.8v-1.3h8.3v1.3h-3l-8.6,22.1c-0.9,2.2-2.8,3.8-5.3,3.8C124.4,82.9,123.3,82.3,122.2,81.7z"/>
<path d="M144.9,81.1h3.7V56.9h-3.7v-1.3h5.1v2.9c1.6-1.8,3.8-3.4,6.8-3.4c5.1,0,7.7,4.6,7.7,9.5c0,5.1-2.8,9.6-8.1,9.6
	c-2.9,0-4.9-1.3-6.4-2.9v9.7h4.2v1.3h-9.3V81.1z M150.1,60.1v9.8c1.4,1.6,3.5,3.1,6.4,3.1c4.5,0,6.7-3.7,6.7-8.3
	c0-4.2-1.9-8.1-6.4-8.1C153.6,56.5,151.6,58.3,150.1,60.1z"/>
<path d="M167.5,64.8c0-5.8,3.3-9.6,8.2-9.6c5.6,0,7.6,5.1,7.6,8.9c0,0.2,0,0.6,0,0.8H169c0,4.9,2.7,8,7.3,8c2.2,0,4.4-0.7,6.3-1.9
	v1.4c-1.7,1-3.7,1.8-6.3,1.8C170.7,74.3,167.5,70.5,167.5,64.8z M169,63.6h12.8c-0.2-3.5-1.9-7.2-6.2-7.2
	C171.9,56.5,169.4,59.4,169,63.6z"/>
<path d="M189,72.7c0-0.8,0.6-1.4,1.4-1.4c0.8,0,1.4,0.6,1.4,1.4c0,0.8-0.6,1.5-1.4,1.5C189.6,74.2,189,73.5,189,72.7z"/>
<path d="M195.9,64.7c0-5.8,3.5-9.6,9.2-9.6c2.2,0,4.6,0.6,6.1,1.3v4.8h-1.4v-3.9c-1.1-0.4-3-0.8-4.7-0.8c-5.1,0-7.7,3.5-7.7,8.1
	c0,5.1,3,8.3,7.6,8.3c2.2,0,4.4-0.7,6.3-2v1.4c-1.7,1.1-3.7,1.9-6.3,1.9C199.4,74.3,195.9,70.5,195.9,64.7z"/>
<path d="M213.9,73.2V69h1.3v3.2c1.5,0.4,3.3,0.7,4.9,0.7c2.8,0,5.5-0.9,5.5-3.5c0-5.4-11.3-2.9-11.3-9.5c0-3,2.3-4.8,6.4-4.8
	c1.9,0,4,0.4,5.6,0.9v4.2h-1.4v-3.2c-1.1-0.3-2.8-0.6-4.2-0.6c-3.1,0-5,1.3-5,3.4c0,5.4,11.3,2.8,11.3,9.5c0,3.5-3.1,4.8-6.8,4.8
	C218.2,74.3,215.9,73.8,213.9,73.2z"/>
<path d="M229.9,73.2V69h1.3v3.2c1.5,0.4,3.3,0.7,4.9,0.7c2.8,0,5.5-0.9,5.5-3.5c0-5.4-11.3-2.9-11.3-9.5c0-3,2.3-4.8,6.4-4.8
	c1.9,0,4,0.4,5.6,0.9v4.2h-1.4v-3.2c-1.1-0.3-2.8-0.6-4.2-0.6c-3.1,0-5,1.3-5,3.4c0,5.4,11.3,2.8,11.3,9.5c0,3.5-3.1,4.8-6.8,4.8
	C234.1,74.3,231.8,73.8,229.9,73.2z"/>
</svg>
